<?xml version="1.0" standalone="no"?>
<!DOCTYPE svg PUBLIC "-//W3C//DTD SVG 20010904//EN"
 "http://www.w3.org/TR/2001/REC-SVG-20010904/DTD/svg10.dtd">
<svg version="1.0" xmlns="http://www.w3.org/2000/svg"
 width="712.000000pt" height="712.000000pt" viewBox="0 0 712.000000 712.000000"
 preserveAspectRatio="xMidYMid meet">
<metadata>
Created by potrace 1.11, written by Peter Selinger 2001-2013
</metadata>
<g transform="translate(0.000000,712.000000) scale(0.100000,-0.100000)"
fill="#000000" stroke="none">
<path d="M3330 7114 c-240 -21 -428 -51 -626 -99 -911 -223 -1708 -812 -2196
-1625 -266 -442 -422 -907 -490 -1460 -17 -138 -17 -602 0 -740 105 -854 445
-1564 1026 -2146 582 -581 1292 -921 2146 -1026 138 -17 602 -17 740 0 854
105 1564 445 2146 1026 581 582 921 1292 1026 2146 17 138 17 602 0 740 -105
854 -445 1564 -1026 2146 -572 571 -1271 911 -2101 1020 -105 14 -551 26 -645
18z m-2036 -1899 c17 -8 361 -345 763 -748 779 -780 762 -761 729 -824 -26
-49 -1478 -1491 -1509 -1499 -44 -10 -79 11 -175 109 -93 96 -108 121 -97 165
4 18 218 239 626 647 l619 620 -620 620 c-673 673 -653 650 -612 717 28 44
160 173 197 192 37 20 40 20 79 1z m4783 -2949 c28 -24 28 -26 31 -154 4 -155
-6 -185 -66 -202 -26 -8 -482 -10 -1539 -8 l-1503 3 -27 28 c-28 27 -28 28
-28 168 l0 141 28 24 28 24 1524 0 1524 0 28 -24z"/>
</g>
</svg>
